<svg width="355" height="355" viewBox="0 0 355 355" fill="none" xmlns="http://www.w3.org/2000/svg">
<path d="M177.5 335.043C177.5 346.065 186.464 355.116 197.416 353.879C230.519 350.142 262.049 337.142 288.286 316.182C319.744 291.053 341.723 255.975 350.616 216.707C359.51 177.439 354.789 136.314 337.228 100.083C319.668 63.8522 290.311 34.6677 253.978 17.3204C217.644 -0.0269352 176.492 -4.50631 137.277 4.61755C98.0622 13.7414 63.1142 35.9264 38.1698 67.5308C13.2255 99.1352 -0.233051 138.281 0.00348257 178.543C0.200765 212.123 9.91521 244.816 27.8213 272.907C33.7457 282.201 46.4196 283.481 54.9906 276.551V276.551C63.5616 269.621 64.7474 257.113 59.1293 247.63C46.7513 226.738 40.0608 202.828 39.9168 178.308C39.7334 147.1 50.1656 116.757 69.5007 92.2593C88.8359 67.7617 115.925 50.5654 146.322 43.4932C176.719 36.421 208.617 39.8931 236.78 53.3396C264.944 66.786 287.699 89.4079 301.31 117.492C314.922 145.576 318.582 177.453 311.688 207.891C304.795 238.328 287.758 265.518 263.374 284.997C244.216 300.301 221.417 310.131 197.388 313.641C186.482 315.234 177.5 324.021 177.5 335.043V335.043Z" fill="white"/>
</svg>
