<svg width="342" height="342" viewBox="0 0 342 342" fill="none" xmlns="http://www.w3.org/2000/svg">
<path d="M171 327.585C171 335.546 177.465 342.063 185.398 341.393C202.921 339.912 220.139 335.735 236.439 328.983C257.186 320.39 276.036 307.794 291.915 291.915C307.794 276.036 320.39 257.186 328.983 236.439C335.735 220.139 339.912 202.921 341.393 185.398C342.063 177.465 335.546 171 327.585 171V171C319.623 171 313.245 177.47 312.439 185.391C311.042 199.123 307.65 212.606 302.348 225.406C295.203 242.655 284.731 258.327 271.529 271.529C258.327 284.731 242.655 295.203 225.406 302.348C212.606 307.65 199.123 311.042 185.391 312.439C177.47 313.245 171 319.623 171 327.585V327.585Z" fill="#FF3A75"/>
</svg>
