<svg width="38" height="38" viewBox="0 0 38 38" fill="none" xmlns="http://www.w3.org/2000/svg">
    <g clip-path="url(#clip0_122_678)">
    <g clip-path="url(#clip1_122_678)">
    <path fill-rule="evenodd" clip-rule="evenodd" d="M2.67119 2.67119C0 5.34237 0 9.64155 0 18.24V19.76C0 28.3584 0 32.6576 2.67119 35.3288C5.34237 38 9.64155 38 18.24 38H19.76C28.3584 38 32.6576 38 35.3288 35.3288C38 32.6576 38 28.3584 38 19.76V18.24C38 9.64155 38 5.34237 35.3288 2.67119C32.6576 0 28.3584 0 19.76 0H18.24C9.64155 0 5.34237 0 2.67119 2.67119ZM6.41256 11.5586C6.61839 21.4386 11.5583 27.3761 20.2191 27.3761H20.7101V21.7236C23.8926 22.0403 26.2991 24.3678 27.2649 27.3761H31.7617C30.5267 22.8795 27.2807 20.3936 25.2541 19.4436C27.2807 18.272 30.1307 15.422 30.8116 11.5586H26.7265C25.8398 14.6936 23.2118 17.5436 20.7101 17.8128V11.5586H16.625V22.5153C14.0916 21.882 10.8934 18.8103 10.7509 11.5586H6.41256Z" fill="white"/>
    </g>
    </g>
    <defs>
    <clipPath id="clip0_122_678">
    <rect width="38" height="38" fill="white"/>
    </clipPath>
    <clipPath id="clip1_122_678">
    <rect width="217.708" height="38" fill="white"/>
    </clipPath>
    </defs>
</svg>
