<svg width="1336" height="1400" viewBox="0 0 1336 1400" fill="none" xmlns="http://www.w3.org/2000/svg">
<path fill-rule="evenodd" clip-rule="evenodd" d="M701.187 18.2681C685.424 -6.08936 649.786 -6.08939 634.023 18.2681L526.596 184.273C516.309 200.169 496.286 206.675 478.62 199.861L294.134 128.705C267.065 118.264 238.233 139.212 239.798 168.182L250.463 365.627C251.484 384.534 239.109 401.566 220.812 406.438L29.7354 457.309C1.69909 464.773 -9.31368 498.667 8.98076 521.185L133.663 674.653C145.603 689.349 145.603 710.402 133.663 725.098L8.98077 878.566C-9.31367 901.084 1.69907 934.977 29.7353 942.442L220.812 993.313C239.109 998.184 251.484 1015.22 250.463 1034.12L239.798 1231.57C238.233 1260.54 267.065 1281.49 294.134 1271.05L478.62 1199.89C496.286 1193.08 516.309 1199.58 526.596 1215.48L634.023 1381.48C649.786 1405.84 685.424 1405.84 701.187 1381.48L808.614 1215.48C818.901 1199.58 838.924 1193.08 856.59 1199.89L1041.08 1271.05C1068.14 1281.49 1096.98 1260.54 1095.41 1231.57L1084.75 1034.12C1083.73 1015.22 1096.1 998.184 1114.4 993.313L1305.47 942.442C1333.51 934.977 1344.52 901.084 1326.23 878.566L1201.55 725.098C1189.61 710.402 1189.61 689.349 1201.55 674.653L1326.23 521.185C1344.52 498.667 1333.51 464.773 1305.47 457.309L1114.4 406.438C1096.1 401.567 1083.73 384.534 1084.75 365.627L1095.41 168.182C1096.98 139.212 1068.14 118.264 1041.08 128.705L856.59 199.861C838.924 206.675 818.901 200.169 808.614 184.273L701.187 18.2681ZM470.678 905.913L431.928 435.984C430.069 413.442 443.729 392.554 465.017 385.383L979.925 211.951C1009.93 201.845 1041.43 222.764 1044.05 254.536L1053.84 373.278L1091.53 830.311C1097.81 906.483 1030.78 974.179 941.82 981.515C852.857 988.851 775.646 933.049 769.365 856.877C763.084 780.705 830.111 713.008 919.074 705.672C937.931 704.117 956.191 705.549 973.428 709.261L950.237 428.012L550.492 562.655L588.778 1026.96C595.06 1103.14 528.032 1170.83 439.07 1178.17C350.107 1185.5 272.896 1129.7 266.615 1053.53C260.334 977.357 327.361 909.661 416.324 902.325C435.181 900.77 453.441 902.201 470.678 905.913Z" fill="#24243D"/>
</svg>
