<svg width="483" height="485" viewBox="0 0 483 485" fill="none" xmlns="http://www.w3.org/2000/svg">
<path d="M267.78 386.65L160.12 479.8C148.31 490.01 130.03 480.98 130.97 465.39L139.57 323.3C139.766 320.087 139.08 316.883 137.585 314.032C136.09 311.182 133.844 308.795 131.09 307.13L9.24004 233.53C-4.12996 225.45 -1.18997 205.27 13.93 201.35L151.73 165.62C154.844 164.811 157.677 163.168 159.924 160.866C162.171 158.564 163.747 155.692 164.48 152.56L196.78 13.9199C200.33 -1.28012 220.43 -4.7201 228.83 8.4399L305.4 128.44C307.131 131.152 309.572 133.339 312.458 134.764C315.343 136.188 318.564 136.795 321.77 136.52L463.61 124.45C479.17 123.12 488.61 141.18 478.72 153.24L388.24 263.14C386.197 265.626 384.872 268.624 384.408 271.809C383.945 274.993 384.36 278.244 385.61 281.21L440.96 412.41C447.02 426.8 432.78 441.41 418.25 435.68L285.78 383.58C282.785 382.4 279.525 382.062 276.352 382.603C273.179 383.144 270.214 384.544 267.78 386.65Z" fill="#1F1F35"/>
<path d="M440.96 178.52L398.33 177.82C393.071 177.74 387.95 176.131 383.59 173.19L341.19 144.65C337.629 142.247 333.743 140.364 329.65 139.06L288.6 125.93C286.629 125.3 284.554 125.064 282.492 125.237C280.431 125.409 278.423 125.985 276.585 126.933C274.746 127.882 273.112 129.183 271.776 130.762C270.441 132.342 269.429 134.169 268.8 136.14L237.8 233.14C237.186 235.068 236.198 236.857 234.893 238.404C233.588 239.95 231.99 241.224 230.192 242.153C228.394 243.081 226.431 243.647 224.414 243.816C222.398 243.985 220.367 243.756 218.44 243.14L192.72 234.92C180.559 231.033 167.353 232.135 156.006 237.984C144.658 243.833 136.098 253.95 132.21 266.11L114.06 322.87C110.175 335.03 111.279 348.235 117.128 359.582C122.976 370.929 133.092 379.489 145.25 383.38L202.01 401.53C214.17 405.417 227.376 404.315 238.724 398.466C250.071 392.617 258.631 382.5 262.52 370.34L297.66 260.41L311.31 217.73C311.752 216.321 312.518 215.036 313.545 213.976C314.573 212.916 315.834 212.111 317.229 211.625C318.623 211.139 320.111 210.986 321.575 211.178C323.039 211.37 324.438 211.901 325.66 212.73L361.88 237.41C366.225 240.369 371.334 242.004 376.59 242.12L424.07 243.12C426.67 243.185 429.222 242.402 431.339 240.891C433.457 239.379 435.026 237.221 435.81 234.74L449.81 190.89C450.263 189.483 450.38 187.989 450.152 186.528C449.924 185.068 449.357 183.681 448.497 182.478C447.637 181.276 446.507 180.292 445.198 179.605C443.889 178.917 442.438 178.546 440.96 178.52Z" fill="#01011D"/>
</svg>
