<svg width="1337" height="1400" viewBox="0 0 1337 1400" fill="none" xmlns="http://www.w3.org/2000/svg">
<path fill-rule="evenodd" clip-rule="evenodd" d="M702.081 18.2681C686.319 -6.08936 650.681 -6.08939 634.918 18.2681L527.491 184.273C517.204 200.169 497.181 206.675 479.515 199.861L295.029 128.705C267.96 118.264 239.128 139.212 240.693 168.182L251.357 365.627C252.378 384.534 240.003 401.566 221.706 406.438L30.6299 457.309C2.59362 464.773 -8.41915 498.667 9.8753 521.185L134.558 674.653C146.497 689.349 146.497 710.402 134.558 725.098L9.87531 878.566C-8.41914 901.084 2.5936 934.977 30.6299 942.442L221.706 993.313C240.003 998.184 252.378 1015.22 251.357 1034.12L240.693 1231.57C239.128 1260.54 267.96 1281.49 295.029 1271.05L479.515 1199.89C497.181 1193.08 517.204 1199.58 527.491 1215.48L634.918 1381.48C650.681 1405.84 686.319 1405.84 702.081 1381.48L809.509 1215.48C819.796 1199.58 839.819 1193.08 857.485 1199.89L1041.97 1271.05C1069.04 1281.49 1097.87 1260.54 1096.31 1231.57L1085.64 1034.12C1084.62 1015.22 1097 998.184 1115.29 993.313L1306.37 942.442C1334.41 934.977 1345.42 901.084 1327.12 878.566L1202.44 725.098C1190.5 710.402 1190.5 689.349 1202.44 674.653L1327.12 521.185C1345.42 498.667 1334.41 464.773 1306.37 457.309L1115.29 406.438C1097 401.567 1084.62 384.534 1085.64 365.627L1096.31 168.182C1097.87 139.212 1069.04 118.264 1041.97 128.705L857.485 199.861C839.819 206.675 819.796 200.169 809.509 184.273L702.081 18.2681ZM1123.4 757.346C1136.65 742.877 1144 723.967 1144 704.346C1144 687.048 1138.29 670.235 1127.75 656.522C1117.21 642.808 1102.43 632.964 1085.72 628.52C1069.01 624.076 1051.3 625.281 1035.34 631.949C1019.38 638.617 1006.08 650.372 997.492 665.388L850.176 639.76C849.531 624.657 846.124 609.8 840.122 595.927L905.283 549.081C923.048 562.781 945.149 569.627 967.546 568.369C989.942 567.11 1011.14 557.832 1027.26 542.228C1043.38 526.625 1053.34 505.74 1055.34 483.391C1057.33 461.043 1051.21 438.724 1038.11 420.514C1025 402.305 1005.78 389.422 983.958 384.221C962.138 379.02 939.174 381.848 919.266 392.188C899.359 402.528 883.836 419.69 875.538 440.535C867.239 461.38 866.718 484.517 874.07 505.715L808.895 552.569C788.658 534.341 762.994 523.272 735.851 521.065C708.708 518.859 681.593 525.636 658.68 540.355L488.292 369.926C498.925 350.217 502.112 327.34 497.272 305.474C492.431 283.609 479.886 264.216 461.929 250.839C443.972 237.463 421.802 230.996 399.472 232.621C377.141 234.247 356.141 243.855 340.309 259.691C324.477 275.527 314.871 296.532 313.246 318.868C311.621 341.204 318.086 363.38 331.459 381.341C344.832 399.302 364.221 411.851 386.081 416.692C407.941 421.534 430.813 418.346 450.517 407.71L620.91 578.147C614.225 588.552 609.134 599.899 605.807 611.811L573.506 610.016C568.164 597.101 558.595 586.384 546.367 579.621C534.138 572.858 519.976 570.449 506.2 572.79C492.425 575.132 479.852 582.083 470.543 592.506C461.234 602.929 455.741 616.206 454.962 630.161C454.184 644.116 458.167 657.921 466.26 669.315C474.352 680.71 486.073 689.017 499.503 692.876C512.933 696.735 527.275 695.917 540.179 690.556C553.084 685.195 563.785 675.61 570.53 663.369L602.83 665.165C606.507 687.825 616.394 709.021 631.393 726.397L490.577 913.9C463.543 901.776 432.991 900.04 404.758 909.023C376.526 918.007 352.592 937.08 337.531 962.599C322.47 988.118 317.336 1018.29 323.112 1047.36C328.888 1076.42 345.169 1102.34 368.842 1120.16C392.515 1137.98 421.922 1146.45 451.443 1143.95C480.964 1141.45 508.53 1128.16 528.873 1106.61C549.216 1085.07 560.909 1056.78 561.72 1027.16C562.53 997.536 552.4 968.653 533.265 946.029L674.072 758.54C689.324 765.519 705.83 769.341 722.596 769.776C739.363 770.212 756.044 767.252 771.638 761.074C787.232 754.896 801.415 745.628 813.337 733.828C825.258 722.027 834.671 707.937 841.009 692.405L988.307 718.029C991.728 737.35 1002.26 754.688 1017.83 766.624C1033.4 778.56 1052.88 784.228 1072.42 782.511C1091.96 780.793 1110.15 771.815 1123.4 757.346Z" fill="#24243D"/>
</svg>
