<svg width="531" height="490" viewBox="0 0 531 490" fill="none" xmlns="http://www.w3.org/2000/svg">
<path d="M223.57 12.25C195.98 -11.92 152.57 2.17994 144.46 37.9499C141.866 49.3959 135.202 59.5099 125.708 66.4099C116.215 73.3099 104.538 76.526 92.8499 75.4599C56.3199 72.1199 29.4899 109.04 43.9599 142.75C48.5817 153.534 49.13 165.629 45.5027 176.787C41.8754 187.945 34.3195 197.405 24.2399 203.41C-7.27008 222.18 -7.27008 267.81 24.2399 286.58C34.3242 292.585 41.8835 302.049 45.511 313.211C49.1386 324.374 48.5873 336.474 43.9599 347.26C29.4899 380.97 56.3199 417.89 92.8499 414.55C104.537 413.481 116.214 416.695 125.708 423.594C135.202 430.492 141.866 440.605 144.46 452.05C152.58 487.83 195.98 501.93 223.57 477.76C232.397 470.025 243.733 465.76 255.47 465.76C267.207 465.76 278.543 470.025 287.37 477.76C314.96 501.93 358.37 487.83 366.48 452.05C369.076 440.606 375.741 430.494 385.234 423.596C394.728 416.698 406.404 413.483 418.09 414.55C454.62 417.89 481.45 380.97 466.98 347.26C462.353 336.474 461.801 324.374 465.429 313.211C469.056 302.049 476.616 292.585 486.7 286.58C518.22 267.81 518.22 222.18 486.7 203.41C476.616 197.405 469.056 187.941 465.429 176.778C461.801 165.616 462.353 153.516 466.98 142.73C481.45 109.02 454.62 72.0999 418.09 75.4399C406.403 76.5038 394.727 73.2868 385.233 66.3872C375.74 59.4876 369.076 49.3749 366.48 37.9299C358.37 2.15992 314.96 -11.94 287.37 12.23C278.546 19.9682 267.21 24.2363 255.474 24.24C243.737 24.2437 232.399 19.9827 223.57 12.25Z" fill="#1F1F35"/>
<path d="M221.033 296.192L196.124 377.972C190.112 397.711 201.239 418.585 220.977 424.597L302.758 449.506C322.496 455.518 343.37 444.391 349.382 424.653L374.292 342.872C380.304 323.134 369.176 302.26 349.438 296.248L267.658 271.338C247.919 265.326 227.045 276.454 221.033 296.192Z" fill="#01011D"/>
<path d="M370.474 84.1458L346.944 162.04C340.96 181.848 352.167 202.757 371.975 208.74L449.869 232.271C469.677 238.254 490.586 227.048 496.569 207.24L520.1 129.345C526.084 109.537 514.877 88.6289 495.069 82.6452L417.174 59.1146C397.366 53.1309 376.458 64.3377 370.474 84.1458Z" fill="#01011D"/>
<path d="M142.719 88.6775L126.012 143.53C120 163.268 131.127 184.142 150.865 190.154L205.717 206.861C225.455 212.873 246.33 201.746 252.342 182.008L269.049 127.156C275.061 107.418 263.933 86.5433 244.195 80.5313L189.343 63.8241C169.605 57.8122 148.731 68.9395 142.719 88.6775Z" fill="#01011D"/>
<path d="M61.222 243.092L47.9647 286.618C43.0309 302.816 52.1625 319.947 68.3608 324.881L111.887 338.138C128.085 343.072 145.216 333.94 150.15 317.742L163.407 274.216C168.341 258.018 159.209 240.887 143.011 235.953L99.485 222.696C83.2867 217.762 66.1558 226.893 61.222 243.092Z" fill="#01011D"/>
<path d="M406.763 154.285L269.005 348.56L301.634 371.697L439.392 177.422L406.763 154.285Z" fill="#01011D"/>
<path d="M207.873 124.671L170.673 139.071L257.631 363.712L294.831 349.312L207.873 124.671Z" fill="#01011D"/>
<path d="M181.639 123.107L75.3115 262.228L107.092 286.517L213.42 147.397L181.639 123.107Z" fill="#01011D"/>
</svg>
