<svg width="718" height="563" viewBox="0 0 718 563" fill="none" xmlns="http://www.w3.org/2000/svg">
<path d="M6.55016 509.67L191.62 226.05C201.87 212.41 220.4 213.38 230.87 228.1L272.37 271.27C282.84 285.98 301.37 286.96 311.61 273.34L416.84 97.6702C425.51 86.1501 440.48 84.8101 451.45 94.5701L496.1 136.18C505.53 144.57 518.16 144.88 527.1 136.95L675.31 6.09014C699.17 -14.9899 730.62 23.2701 712.31 51.0901L545.53 304C537.28 316.52 521.9 318.71 510.43 309L461.04 267.15C449.8 257.62 434.74 259.52 426.36 271.53L301.15 451.02C292.05 464.02 275.28 465.02 264.07 453.13L223.34 414.71C213.68 404.47 199.59 403.56 189.93 412.57L43.0202 555.63C18.6002 578.41 -14.1098 537.16 6.55016 509.67Z" fill="#24243D"/>
</svg>
