<svg width="1568" height="788" viewBox="0 0 1568 788" fill="none" xmlns="http://www.w3.org/2000/svg">
    <g clip-path="url(#clip0_319_85)">
    <path d="M1318.11 467.05C1332.73 388.479 1548.5 472.871 1548.5 472.871C1410.5 215.461 1192.23 363.303 1138.63 391.725C1085.04 420.148 996.889 437.476 993.718 359.776C990.548 282.077 1144.71 303.931 1144.71 303.931C1144.71 303.931 1050.16 224.013 953.387 260.034C856.613 296.055 740.557 369.532 743.78 268.621C747.003 167.709 886.226 203.553 886.226 203.553C754.661 103.755 627.203 154.837 539.354 206.564C488.729 236.438 449.575 228.455 425.372 216.384C455.964 96.7834 615.906 44.3267 615.906 44.3267C278.545 -3.62502 39.063 328.245 37.8681 329.665C39.1144 331.261 324.876 700.88 659.335 701.333C659.335 701.333 483.513 622.021 441.171 491.953C438.373 483.412 435.811 475.427 433.369 467.773C502.243 476.819 598.371 527.476 677.915 562.845C775.957 606.484 830.449 560.911 830.449 560.911C797.719 575.771 721.978 540.192 744.873 496.648C779.086 431.646 845.516 518.955 941.486 590.422C1037.46 661.888 1102.13 591.224 1102.13 591.224C1064.86 627.277 966.675 581.475 1011.44 539.505C1056.21 497.535 1129.73 558.778 1236.45 583.674C1343.16 608.57 1405.07 494.667 1405.07 494.667C1405.07 494.667 1303.49 545.729 1318.11 467.05Z" fill="#18182D"/>
    <path d="M1301.92 487.625C1316.54 409.054 1532.32 493.447 1532.32 493.447C1394.31 236.037 1176.09 383.882 1122.45 412.301C1068.8 440.72 980.751 458.055 977.581 380.355C974.41 302.656 1128.33 324.547 1128.33 324.547C1128.33 324.547 1033.77 244.574 937.004 280.65C840.233 316.725 724.419 390.111 727.635 289.092C730.851 188.072 870.031 224.021 870.031 224.021C738.512 124.172 611.004 175.251 523.159 227.032C472.531 256.851 433.331 248.919 409.174 236.797C439.827 117.363 599.704 64.6861 599.704 64.6861C262.147 16.7741 22.8648 348.658 21.8692 350.093C23.0656 351.686 308.877 721.307 643.29 721.811C643.29 721.811 467.515 642.449 425.175 512.435C422.378 503.894 419.815 495.909 417.324 488.251C486.248 497.301 582.375 547.958 661.621 583.305C759.713 626.948 814.205 581.375 814.205 581.375C781.475 596.235 705.734 560.656 728.632 517.166C762.796 452.16 829.275 539.473 925.192 610.882C1021.11 682.291 1085.84 611.684 1085.84 611.684C1048.57 647.737 950.381 601.935 995.196 559.969C1040.01 518.002 1113.44 579.239 1220.2 604.138C1326.97 629.038 1388.89 515.405 1388.89 515.405C1388.89 515.405 1287.34 566.092 1301.92 487.625Z" fill="#18182D"/>
    <path d="M288.466 379.175C280.577 260.248 329.424 154.981 417.821 74.1337C179.397 131.917 22.6941 349.072 21.8798 350.251C22.8056 351.501 194.988 574.035 428.163 674.098C346.497 586.553 295.482 484.966 288.466 379.175Z" fill="#18182D"/>
    <path d="M235.416 523.516C235.416 523.516 69.0192 384.466 69.8964 345.363C70.7735 306.26 164.515 226.013 164.515 226.013C164.515 226.013 106.891 297.615 117.835 344.509C128.779 391.403 235.416 523.516 235.416 523.516Z" fill="#18182D"/>
    </g>
</svg>
