<svg width="479" height="536" viewBox="0 0 479 536" fill="none" xmlns="http://www.w3.org/2000/svg">
<path d="M276.368 86.8813C260.758 44.6579 213.874 23.0839 171.651 38.6945C129.427 54.305 107.853 101.189 123.464 143.412L220.792 406.666C236.403 448.89 283.286 470.464 325.51 454.853C367.733 439.243 389.307 392.359 373.697 350.136L276.368 86.8813Z" fill="#1F1F35"/>
<path d="M181.898 220.325C166.162 178.062 119.145 156.556 76.884 172.292C34.6228 188.027 13.1203 235.045 28.8568 277.309L96.5468 459.105C112.283 501.369 159.3 522.874 201.561 507.139C243.822 491.403 265.325 444.385 249.588 402.122L181.898 220.325Z" fill="#1F1F35"/>
<path d="M397.66 64.9288C384.457 29.2168 344.805 10.9691 309.096 24.1713C273.387 37.3735 255.142 77.0263 268.345 112.738L325.139 266.356C338.342 302.068 377.994 320.315 413.703 307.113C449.413 293.911 467.658 254.258 454.454 218.546L397.66 64.9288Z" fill="#1F1F35"/>
<path d="M382.391 291.25L353.151 281.25C351.272 280.609 349.286 280.345 347.305 280.472C345.325 280.6 343.388 281.116 341.607 281.992C339.826 282.867 338.235 284.085 336.925 285.576C335.614 287.067 334.611 288.801 333.971 290.68L318.171 337.03C315.655 344.428 311.24 351.036 305.368 356.192C299.496 361.348 292.372 364.872 284.711 366.41C277.221 367.93 256.171 363.12 248.411 360.48L155.711 328.88C132.371 320.88 106.821 291.08 114.781 267.74L125.671 235.81L130.581 221.41C131.875 217.615 131.608 213.461 129.84 209.862C128.071 206.263 124.946 203.514 121.151 202.22L91.9108 192.22C88.1157 190.966 83.9804 191.251 80.3925 193.012C76.8046 194.773 74.0503 197.871 72.7208 201.64L56.9208 247.99C31.1708 323.54 104.461 369.4 130.521 383.3C133.622 384.97 136.029 387.688 137.311 390.969C138.593 394.25 138.668 397.879 137.521 401.21L122.361 445.66C121.867 447.111 121.663 448.645 121.762 450.175C121.861 451.704 122.261 453.2 122.938 454.575C123.615 455.95 124.556 457.179 125.708 458.19C126.86 459.202 128.2 459.976 129.651 460.47L188.991 480.7C191.919 481.689 195.12 481.477 197.892 480.11C200.664 478.744 202.782 476.335 203.781 473.41L218.931 428.96C220.058 425.624 222.334 422.797 225.353 420.983C228.371 419.17 231.936 418.488 235.411 419.06C253.921 422.17 303.231 429.3 333.751 411.31C351.121 401.07 366.651 384.16 375.981 356.77L391.831 310.41C393.118 306.617 392.847 302.469 391.076 298.876C389.306 295.283 386.182 292.54 382.391 291.25Z" fill="#01011D"/>
<path d="M165.03 299.89L246.95 327.82L261.04 332.62C264.715 333.873 268.6 334.39 272.474 334.141C276.348 333.893 280.136 332.884 283.62 331.171C287.104 329.459 290.217 327.077 292.78 324.162C295.344 321.246 297.308 317.855 298.56 314.18L302.45 302.79L356.03 145.6C357.283 141.926 357.801 138.04 357.552 134.166C357.303 130.292 356.294 126.505 354.582 123.021C352.869 119.536 350.488 116.424 347.572 113.86C344.657 111.297 341.265 109.333 337.59 108.08L241.59 75.3499C234.168 72.819 226.045 73.3399 219.007 76.798C211.969 80.2561 206.592 86.3682 204.06 93.79L175.78 176.87L153.5 242.22L146.59 262.41C144.072 269.826 144.6 277.938 148.057 284.965C151.514 291.992 157.619 297.36 165.03 299.89Z" fill="#01011D"/>
</svg>
