<svg width="1337" height="1400" viewBox="0 0 1337 1400" fill="none" xmlns="http://www.w3.org/2000/svg">
<path fill-rule="evenodd" clip-rule="evenodd" d="M702.081 18.2681C686.318 -6.08936 650.68 -6.08939 634.918 18.2681L527.49 184.273C517.203 200.169 497.18 206.675 479.514 199.861L295.029 128.705C267.96 118.264 239.128 139.212 240.693 168.182L251.357 365.627C252.378 384.534 240.003 401.566 221.706 406.438L30.6299 457.309C2.59362 464.773 -8.41915 498.667 9.87529 521.185L134.558 674.653C146.497 689.349 146.497 710.402 134.558 725.098L9.8753 878.566C-8.41914 901.084 2.5936 934.977 30.6299 942.442L221.706 993.313C240.003 998.184 252.378 1015.22 251.357 1034.12L240.693 1231.57C239.128 1260.54 267.96 1281.49 295.029 1271.05L479.514 1199.89C497.18 1193.08 517.203 1199.58 527.49 1215.48L634.918 1381.48C650.68 1405.84 686.318 1405.84 702.081 1381.48L809.508 1215.48C819.795 1199.58 839.819 1193.08 857.484 1199.89L1041.97 1271.05C1069.04 1281.49 1097.87 1260.54 1096.31 1231.57L1085.64 1034.12C1084.62 1015.22 1097 998.184 1115.29 993.313L1306.37 942.442C1334.41 934.977 1345.42 901.084 1327.12 878.566L1202.44 725.098C1190.5 710.402 1190.5 689.349 1202.44 674.653L1327.12 521.185C1345.42 498.667 1334.41 464.773 1306.37 457.309L1115.29 406.438C1097 401.567 1084.62 384.534 1085.64 365.627L1096.31 168.182C1097.87 139.212 1069.04 118.264 1041.97 128.705L857.484 199.861C839.819 206.675 819.795 200.169 809.508 184.273L702.081 18.2681ZM613.043 254.042C669.371 221.521 736.299 212.67 799.145 229.43C861.952 246.338 915.487 287.468 948.008 343.796C980.53 400.125 989.381 467.053 972.62 529.899L915.474 743.173C898.633 806.022 857.516 859.607 801.168 892.14C744.819 924.673 677.854 933.489 615.006 916.649C552.157 899.808 498.572 858.691 466.039 802.343C433.506 745.994 424.69 679.029 441.53 616.18L498.677 402.906C515.585 340.099 556.714 286.564 613.043 254.042ZM828.241 1053.55C763.181 1078.56 692.511 1084.45 624.501 1070.81L605.259 1142.62C603.594 1148.85 600.719 1154.69 596.797 1159.8C592.876 1164.91 587.984 1169.2 582.403 1172.43C576.822 1175.65 570.661 1177.74 564.271 1178.58C557.881 1179.42 551.389 1178.99 545.165 1177.32C538.939 1175.65 533.102 1172.78 527.989 1168.86C522.875 1164.94 518.584 1160.04 515.362 1154.46C512.14 1148.88 510.049 1142.72 509.21 1136.33C508.37 1129.94 508.799 1123.45 510.47 1117.23L529.712 1045.41C463.995 1023.22 405.74 982.779 361.897 928.597C312.893 868.038 284.437 793.452 280.65 715.642C280.023 702.653 284.577 689.946 293.311 680.311C302.045 670.677 314.245 664.902 327.233 664.255C340.221 663.609 352.935 668.142 362.583 676.861C372.231 685.581 378.024 697.772 378.691 710.759C381.473 767.816 402.348 822.505 438.293 866.903C474.239 911.3 523.386 943.1 578.615 957.695L626.009 970.394C681.136 985.369 739.599 982.403 792.927 961.926C846.255 941.449 891.678 904.525 922.615 856.503C929.687 845.589 940.8 837.928 953.515 835.201C966.23 832.474 979.507 834.905 990.432 841.959C1001.36 849.013 1009.03 860.114 1011.78 872.825C1014.53 885.536 1012.12 898.817 1005.08 909.752C962.895 975.245 900.959 1025.61 828.241 1053.55Z" fill="#24243D"/>
</svg>
