<svg width="1235" height="1235" viewBox="0 0 1235 1235" fill="none" xmlns="http://www.w3.org/2000/svg">
    <path d="M617.5 0L665.799 312.551L808.318 30.2226L757.67 342.402L980.457 117.932L835.819 399.181L1117.07 254.543L892.598 477.33L1204.78 426.682L922.449 569.201L1235 617.5L922.449 665.799L1204.78 808.318L892.598 757.67L1117.07 980.457L835.819 835.819L980.457 1117.07L757.67 892.598L808.318 1204.78L665.799 922.449L617.5 1235L569.201 922.449L426.682 1204.78L477.33 892.598L254.543 1117.07L399.181 835.819L117.932 980.457L342.402 757.67L30.2226 808.318L312.551 665.799L0 617.5L312.551 569.201L30.2226 426.682L342.402 477.33L117.932 254.543L399.181 399.181L254.543 117.932L477.33 342.402L426.682 30.2226L569.201 312.551L617.5 0Z" fill="#24243D"/>
</svg>
