<svg width="551" height="576" viewBox="0 0 551 576" fill="none" xmlns="http://www.w3.org/2000/svg">
<path d="M368.16 4.40993L73.2302 88.01C47.6248 95.2683 25.951 112.4 12.9756 135.637C0.00032711 158.874 -3.21378 186.313 4.04025 211.92L58.2303 403.13C65.4863 428.735 82.616 450.409 105.851 463.384C129.087 476.36 156.525 479.574 182.13 472.32L207.13 560.48C212.49 579.42 239 580.29 245.6 561.74L288.1 442.29L477.1 388.74C502.705 381.484 524.379 364.354 537.354 341.119C550.33 317.883 553.544 290.445 546.29 264.84L492.1 73.6199C488.511 60.9348 482.457 49.0815 474.285 38.7371C466.112 28.3927 455.982 19.7602 444.472 13.3328C432.961 6.90537 420.298 2.8091 407.204 1.2781C394.11 -0.252912 380.843 0.811237 368.16 4.40993Z" fill="#1F1F35"/>
<path d="M273.97 17.702L259.877 12.3629C244.151 6.40473 226.572 14.3233 220.614 30.0495L145.565 228.139C139.607 243.865 147.525 261.444 163.251 267.402L177.344 272.741C193.07 278.7 210.649 270.781 216.607 255.055L291.656 56.965C297.615 41.2388 289.696 23.6602 273.97 17.702Z" fill="#01011D"/>
<path d="M455.245 134.298L441.153 128.959C425.426 123 407.848 130.919 401.89 146.645L342.719 302.822C336.761 318.549 344.68 336.127 360.406 342.085L374.499 347.424C390.225 353.382 407.803 345.464 413.762 329.738L472.932 173.561C478.89 157.835 470.971 140.256 455.245 134.298Z" fill="#01011D"/>
<path d="M292.502 163.922L278.409 158.583C262.683 152.625 245.105 160.544 239.146 176.27L210.219 252.623C204.26 268.35 212.179 285.929 227.905 291.887L241.998 297.226C257.724 303.184 275.303 295.265 281.261 279.539L310.189 203.185C316.147 187.459 308.228 169.88 292.502 163.922Z" fill="#01011D"/>
<path d="M359.544 189.32L345.451 183.981C329.725 178.022 312.147 185.941 306.188 201.667L277.261 278.021C271.302 293.747 279.221 311.326 294.947 317.284L309.04 322.623C324.766 328.581 342.345 320.663 348.303 304.937L377.231 228.583C383.189 212.856 375.27 195.278 359.544 189.32Z" fill="#01011D"/>
<path d="M150.813 214.265L418.888 315.829L374.142 433.937C366.559 453.951 351.336 470.134 331.821 478.924C312.307 487.715 290.099 488.394 270.085 480.811L152.912 436.418C132.898 428.835 116.715 413.612 107.924 394.098C99.1339 374.583 98.4554 352.376 106.038 332.361L150.785 214.254L150.813 214.265Z" fill="#01011D"/>
<path d="M108.97 332.02L96.7304 197.02C96.2118 191.438 97.1236 185.816 99.3798 180.685C101.636 175.553 105.162 171.081 109.626 167.69C114.09 164.299 119.344 162.1 124.893 161.303C130.442 160.505 136.102 161.134 141.34 163.13L242.83 201.58L108.97 332.02Z" fill="#01011D"/>
</svg>
