<svg width="1337" height="1400" viewBox="0 0 1337 1400" fill="none" xmlns="http://www.w3.org/2000/svg">
<path fill-rule="evenodd" clip-rule="evenodd" d="M702.081 18.2681C686.319 -6.08936 650.681 -6.08939 634.918 18.2681L527.491 184.273C517.204 200.169 497.181 206.675 479.515 199.861L295.029 128.705C267.96 118.264 239.128 139.212 240.693 168.182L251.357 365.627C252.378 384.534 240.003 401.566 221.706 406.438L30.6299 457.309C2.59362 464.773 -8.41915 498.667 9.8753 521.185L134.558 674.653C146.497 689.349 146.497 710.402 134.558 725.098L9.87531 878.566C-8.41914 901.084 2.5936 934.977 30.6299 942.442L221.706 993.313C240.003 998.184 252.378 1015.22 251.357 1034.12L240.693 1231.57C239.128 1260.54 267.96 1281.49 295.029 1271.05L479.515 1199.89C497.18 1193.08 517.204 1199.58 527.491 1215.48L634.918 1381.48C650.681 1405.84 686.319 1405.84 702.081 1381.48L809.509 1215.48C819.796 1199.58 839.819 1193.08 857.485 1199.89L1041.97 1271.05C1069.04 1281.49 1097.87 1260.54 1096.31 1231.57L1085.64 1034.12C1084.62 1015.22 1097 998.184 1115.29 993.313L1306.37 942.442C1334.41 934.977 1345.42 901.084 1327.12 878.566L1202.44 725.098C1190.5 710.402 1190.5 689.349 1202.44 674.653L1327.12 521.185C1345.42 498.667 1334.41 464.773 1306.37 457.309L1115.29 406.438C1097 401.567 1084.62 384.534 1085.64 365.627L1096.31 168.182C1097.87 139.212 1069.04 118.264 1041.97 128.705L857.485 199.861C839.819 206.675 819.796 200.169 809.509 184.273L702.081 18.2681ZM1032.41 335.555C1032.1 334.074 1031.38 332.711 1030.33 331.625C1029.28 330.539 1027.94 329.776 1026.46 329.425C928.364 305.44 701.695 390.912 578.889 513.668C556.986 535.394 537.018 558.988 519.211 584.182C481.341 580.832 443.471 583.629 411.195 597.699C320.129 637.78 293.615 742.363 286.228 787.351C285.81 789.814 285.968 792.34 286.69 794.731C287.413 797.122 288.68 799.312 290.393 801.131C292.106 802.949 294.217 804.345 296.56 805.209C298.904 806.073 301.416 806.382 303.899 806.111L450.137 789.981C450.242 801.006 450.907 812.019 452.13 822.977C452.866 830.587 456.244 837.698 461.678 843.076L518.307 899.572C523.69 904.998 530.799 908.375 538.406 909.119C549.303 910.338 560.254 911.003 571.218 911.112L555.172 1057.17C554.905 1059.65 555.216 1062.16 556.081 1064.5C556.946 1066.84 558.342 1068.95 560.16 1070.66C561.977 1072.38 564.166 1073.64 566.556 1074.37C568.945 1075.09 571.47 1075.25 573.931 1074.84C618.836 1067.63 723.603 1041.12 763.45 950.054C777.519 917.778 780.4 880.092 777.151 842.406C802.406 824.599 826.062 804.625 847.85 782.712C971.041 660.14 1056.03 438.53 1032.41 335.555ZM724.943 636.49C713.694 625.249 706.032 610.923 702.926 595.327C699.819 579.73 701.408 563.562 707.492 548.868C713.575 534.175 723.88 521.615 737.102 512.779C750.324 503.942 765.87 499.226 781.774 499.226C797.677 499.226 813.223 503.942 826.445 512.779C839.668 521.615 849.972 534.175 856.056 548.868C862.139 563.562 863.728 579.73 860.622 595.327C857.515 610.923 849.853 625.249 838.604 636.49C831.145 643.96 822.286 649.886 812.535 653.93C802.783 657.973 792.33 660.054 781.774 660.054C771.217 660.054 760.764 657.973 751.013 653.93C741.261 649.886 732.403 643.96 724.943 636.49ZM514.456 940.49C505.278 949.686 490.555 953.27 472.834 956.335C433.021 963.119 397.864 928.716 405.016 888.467C407.747 873.208 415.82 851.82 420.844 846.795C421.943 845.718 422.674 844.322 422.934 842.806C423.194 841.29 422.969 839.73 422.293 838.349C421.616 836.967 420.521 835.834 419.164 835.11C417.806 834.386 416.255 834.109 414.731 834.317C392.467 837.041 371.754 847.135 355.891 862.991C316.513 902.402 312.795 1048.64 312.795 1048.64C312.795 1048.64 459.117 1044.92 498.494 1005.51C514.4 989.66 524.507 968.916 527.186 946.621C527.806 939.619 519.28 935.449 514.456 940.49Z" fill="#24243D"/>
</svg>
