<svg width="518" height="473" viewBox="0 0 518 473" fill="none" xmlns="http://www.w3.org/2000/svg">
<path d="M338.78 0.72998H182.57C164.912 0.731372 147.565 5.38034 132.272 14.2097C116.98 23.0391 104.28 35.7379 95.4502 51.03L17.3401 186.33C8.51065 201.623 3.8623 218.971 3.8623 236.63C3.8623 254.289 8.51065 271.637 17.3401 286.93L95.4502 422.23C104.28 437.522 116.98 450.221 132.272 459.05C147.565 467.88 164.912 472.529 182.57 472.53H338.78C356.44 472.527 373.788 467.878 389.081 459.049C404.375 450.219 417.077 437.522 425.91 422.23L504.02 286.93C512.85 271.637 517.498 254.289 517.498 236.63C517.498 218.971 512.85 201.623 504.02 186.33L425.91 51.03C417.077 35.7385 404.375 23.0403 389.081 14.2112C373.788 5.38202 356.44 0.732656 338.78 0.72998Z" fill="#1F1F35"/>
<path d="M511.23 304.92L448.91 177.85C440.309 160.307 428.289 144.661 413.554 131.831C398.82 119.001 381.669 109.246 363.11 103.14L254.68 67.41C236.122 61.3018 216.53 58.9646 197.056 60.5359C177.582 62.1073 158.619 67.5553 141.28 76.5599L99.5401 98.23L15.6701 141.78C9.0384 145.229 4.01781 151.134 1.68041 158.234C-0.65699 165.334 -0.125951 173.066 3.16012 179.78L65.4801 306.91C74.0822 324.452 86.1036 340.097 100.838 352.927C115.572 365.757 132.722 375.512 151.28 381.62L259.71 417.3C278.27 423.407 297.862 425.745 317.337 424.175C336.813 422.606 355.778 417.161 373.12 408.16L407.87 390.11L498.72 342.94C505.359 339.493 510.385 333.585 512.723 326.479C515.061 319.374 514.525 311.635 511.23 304.92ZM264.94 372.58L173.65 342.53C164.518 339.527 156.067 334.755 148.78 328.485C141.492 322.215 135.512 314.571 131.18 305.99C126.848 297.408 124.249 288.057 123.532 278.471C122.814 268.884 123.993 259.251 127 250.12L157 158.83C157.51 157.29 158.14 155.83 158.73 154.34C165.67 137.113 178.903 123.17 195.745 115.341C212.587 107.511 231.776 106.381 249.42 112.18L340.71 142.18C359.151 148.251 374.425 161.398 383.174 178.73C391.922 196.061 393.428 216.158 387.36 234.6L357.36 325.89C351.206 344.27 338.049 359.479 320.746 368.214C303.443 376.948 283.393 378.503 264.95 372.54L264.94 372.58Z" fill="#01011D"/>
<path d="M314.48 169.56L254.36 149.77C241.515 145.544 227.553 146.279 215.223 151.831C202.894 157.384 193.089 167.351 187.74 179.77C187.12 181.23 186.52 182.7 186.02 184.23L166.23 244.41C161.745 258.047 162.859 272.908 169.329 285.724C175.799 298.539 187.094 308.261 200.73 312.75L260.85 332.54C274.488 336.986 289.332 335.854 302.138 329.389C314.943 322.924 324.669 311.654 329.19 298.04L348.98 237.92C351.204 231.166 352.076 224.04 351.545 216.949C351.015 209.859 349.093 202.942 345.889 196.594C342.686 190.246 338.263 184.591 332.874 179.953C327.484 175.314 321.234 171.782 314.48 169.56Z" fill="#01011D"/>
</svg>
