<svg width="1337" height="1400" viewBox="0 0 1337 1400" fill="none" xmlns="http://www.w3.org/2000/svg">
<path fill-rule="evenodd" clip-rule="evenodd" d="M702.081 18.2681C686.319 -6.08936 650.681 -6.08939 634.918 18.2681L527.491 184.273C517.204 200.169 497.181 206.675 479.515 199.861L295.029 128.705C267.96 118.264 239.128 139.212 240.693 168.182L251.357 365.627C252.378 384.534 240.003 401.566 221.706 406.438L30.6299 457.309C2.59362 464.773 -8.41915 498.667 9.8753 521.185L134.558 674.653C146.497 689.349 146.497 710.402 134.558 725.098L9.87531 878.566C-8.41914 901.084 2.5936 934.977 30.6299 942.442L221.706 993.313C240.003 998.184 252.378 1015.22 251.357 1034.12L240.693 1231.57C239.128 1260.54 267.96 1281.49 295.029 1271.05L479.515 1199.89C497.181 1193.08 517.204 1199.58 527.491 1215.48L634.918 1381.48C650.681 1405.84 686.319 1405.84 702.081 1381.48L809.509 1215.48C819.796 1199.58 839.819 1193.08 857.485 1199.89L1041.97 1271.05C1069.04 1281.49 1097.87 1260.54 1096.31 1231.57L1085.64 1034.12C1084.62 1015.22 1097 998.184 1115.29 993.313L1306.37 942.442C1334.41 934.977 1345.42 901.084 1327.12 878.566L1202.44 725.098C1190.5 710.402 1190.5 689.349 1202.44 674.653L1327.12 521.185C1345.42 498.667 1334.41 464.773 1306.37 457.309L1115.29 406.438C1097 401.567 1084.62 384.534 1085.64 365.627L1096.31 168.182C1097.87 139.212 1069.04 118.264 1041.97 128.705L857.485 199.861C839.819 206.675 819.796 200.169 809.509 184.273L702.081 18.2681ZM976.506 260.286L1018.9 940.666C1026.12 940.216 1033.22 942.652 1038.64 947.438C1044.06 952.224 1047.36 958.967 1047.81 966.185C1048.26 973.403 1045.82 980.504 1041.04 985.926C1036.25 991.348 1029.51 994.646 1022.29 995.096L314.695 1039.18C307.477 1039.63 300.376 1037.2 294.954 1032.41C289.532 1027.63 286.233 1020.88 285.784 1013.66C285.334 1006.45 287.77 999.346 292.556 993.924C297.342 988.502 304.085 985.204 311.303 984.754L285.868 576.526C285.418 569.308 287.854 562.207 292.64 556.786C297.426 551.364 304.169 548.065 311.387 547.615L393.033 542.528C400.251 542.079 407.352 544.515 412.773 549.3C418.195 554.086 421.494 560.83 421.944 568.048L447.379 976.276L501.81 972.884L466.2 401.365C465.75 394.147 468.186 387.046 472.972 381.625C477.758 376.203 484.501 372.904 491.719 372.454L573.365 367.367C580.583 366.918 587.684 369.354 593.106 374.139C598.527 378.925 601.826 385.669 602.276 392.887L637.885 964.406L692.316 961.014L673.663 661.647C673.214 654.429 675.649 647.328 680.435 641.906C685.221 636.485 691.965 633.186 699.183 632.736L780.828 627.649C788.046 627.199 795.147 629.635 800.569 634.421C805.991 639.207 809.289 645.951 809.739 653.169L828.392 952.536L882.822 949.144L840.43 268.765C839.98 261.547 842.416 254.446 847.202 249.024C851.988 243.602 858.731 240.303 865.949 239.854L947.595 234.767C954.813 234.317 961.914 236.753 967.336 241.539C972.757 246.325 976.056 253.068 976.506 260.286Z" fill="#24243D"/>
</svg>
