<svg width="470" height="529" viewBox="0 0 470 529" fill="none" xmlns="http://www.w3.org/2000/svg">
<path d="M442.031 182.65L307.861 56.3004C300.801 49.6604 289.471 56.5102 292.071 65.8502L298.001 87.1304C301.473 99.5839 300.909 112.817 296.391 124.93L291.781 137.41L253.781 82.9102C246.239 72.085 236.149 63.2827 224.401 57.2803L115.201 1.46002C112.964 0.31639 110.445 -0.159209 107.944 0.0899043C105.444 0.339018 103.069 1.30271 101.101 2.86529C99.1338 4.42788 97.6577 6.52363 96.849 8.9024C96.0403 11.2812 95.9332 13.8424 96.5407 16.2803L112.281 79.48C116.31 95.6785 115.202 112.729 109.111 128.27L65.9107 238.41L37.4207 196.99C30.4806 186.91 14.7206 191.21 13.8706 203.42L0.970654 390.07C0.0613897 403.285 2.81492 416.493 8.92827 428.244C15.0416 439.994 24.2778 449.83 35.6206 456.67L137.101 517.83C145.475 522.876 154.792 526.159 164.479 527.478C174.167 528.797 184.022 528.124 193.441 525.5L378.911 473.8C391.203 470.376 402.361 463.737 411.235 454.567C420.11 445.397 426.38 434.029 429.401 421.63L467.041 267.04C470.706 252.018 470.322 236.294 465.928 221.469C461.535 206.644 453.289 193.249 442.031 182.65Z" fill="#1F1F35"/>
<path d="M105.781 446.7L97.3606 214.051C96.1406 180.291 124.291 157.29 149.451 171.48L393.111 284.95C419.501 297.23 421.171 334.12 396.001 348.75L160.781 485.41C136.701 501.41 106.961 480.41 105.781 446.7Z" fill="#01011D"/>
</svg>
