<svg width="1337" height="1400" viewBox="0 0 1337 1400" fill="none" xmlns="http://www.w3.org/2000/svg">
<path fill-rule="evenodd" clip-rule="evenodd" d="M702.081 18.2681C686.319 -6.08936 650.681 -6.08939 634.918 18.2681L527.491 184.273C517.204 200.169 497.18 206.675 479.515 199.861L295.029 128.705C267.96 118.264 239.128 139.212 240.693 168.182L251.357 365.627C252.378 384.534 240.003 401.567 221.706 406.438L30.6299 457.309C2.59362 464.773 -8.41915 498.667 9.87529 521.185L134.558 674.653C146.497 689.349 146.497 710.402 134.558 725.098L9.87531 878.566C-8.41914 901.084 2.5936 934.978 30.6299 942.442L221.706 993.313C240.003 998.184 252.378 1015.22 251.357 1034.12L240.693 1231.57C239.128 1260.54 267.96 1281.49 295.029 1271.05L479.515 1199.89C497.18 1193.08 517.204 1199.58 527.491 1215.48L634.918 1381.48C650.681 1405.84 686.319 1405.84 702.081 1381.48L809.509 1215.48C819.796 1199.58 839.819 1193.08 857.485 1199.89L1041.97 1271.05C1069.04 1281.49 1097.87 1260.54 1096.31 1231.57L1085.64 1034.12C1084.62 1015.22 1097 998.184 1115.29 993.313L1306.37 942.442C1334.41 934.978 1345.42 901.084 1327.12 878.566L1202.44 725.098C1190.5 710.402 1190.5 689.349 1202.44 674.653L1327.12 521.185C1345.42 498.667 1334.41 464.773 1306.37 457.309L1115.29 406.438C1097 401.567 1084.62 384.534 1085.64 365.627L1096.31 168.182C1097.87 139.212 1069.04 118.264 1041.97 128.705L857.485 199.861C839.819 206.675 819.796 200.169 809.509 184.273L702.081 18.2681ZM1079.2 444.316L1114.28 456.233C1122.61 459.063 1127.07 468.112 1124.24 476.442L893.652 1155.26C890.822 1163.59 881.775 1168.05 873.443 1165.22L838.36 1153.31C830.029 1150.48 825.569 1141.43 828.4 1133.1L833.084 1119.31C835.914 1110.97 831.455 1101.93 823.124 1099.1L790.412 1087.98C782.081 1085.15 773.033 1089.61 770.203 1097.95L765.518 1111.74C762.688 1120.07 753.641 1124.53 745.309 1121.7L351.447 987.906C343.115 985.075 338.656 976.028 341.486 967.696L346.171 953.905C349.001 945.574 344.541 936.526 336.21 933.696L303.498 922.584C295.167 919.754 286.119 924.213 283.289 932.545L278.604 946.336C275.774 954.667 266.727 959.127 258.395 956.297L224.492 944.78C216.161 941.95 211.701 932.902 214.531 924.571L445.122 245.75C447.952 237.419 456.999 232.959 465.331 235.789L499.234 247.306C507.565 250.136 512.025 259.184 509.195 267.515L502.818 286.288C499.988 294.619 504.447 303.667 512.778 306.497L545.49 317.609C553.821 320.439 562.869 315.979 565.699 307.649L572.076 288.875C574.906 280.544 583.954 276.085 592.285 278.915L986.148 412.707C994.48 415.537 998.938 424.585 996.108 432.916L989.731 451.689C986.901 460.02 991.361 469.068 999.692 471.898L1032.4 483.01C1040.73 485.84 1049.78 481.38 1052.61 473.049L1058.99 454.276C1061.82 445.945 1070.87 441.485 1079.2 444.316ZM360.895 861.027C369.226 863.857 378.274 859.398 381.104 851.067L392.216 818.355C395.046 810.024 390.587 800.976 382.255 798.146L349.544 787.034C341.212 784.204 332.164 788.664 329.335 796.995L318.223 829.706C315.393 838.038 319.852 847.085 328.183 849.915L360.895 861.027ZM406.94 725.477C415.272 728.307 424.32 723.847 427.149 715.517L438.262 682.804C441.091 674.474 436.632 665.425 428.301 662.595L395.589 651.483C387.258 648.653 378.21 653.113 375.38 661.444L364.268 694.156C361.438 702.487 365.897 711.535 374.229 714.365L406.94 725.477ZM452.986 589.927C461.317 592.757 470.365 588.298 473.195 579.966L484.307 547.254C487.137 538.923 482.678 529.875 474.346 527.045L441.634 515.933C433.303 513.103 424.255 517.563 421.425 525.894L410.314 558.606C407.483 566.938 411.943 575.985 420.274 578.815L452.986 589.927ZM499.031 454.377C507.362 457.207 516.41 452.747 519.24 444.416L530.352 411.704C533.182 403.374 528.723 394.325 520.391 391.495L487.68 380.383C479.348 377.553 470.301 382.013 467.471 390.344L456.359 423.056C453.529 431.387 457.988 440.435 466.319 443.265L499.031 454.377ZM702.048 1034.88C710.38 1037.71 719.427 1033.25 722.258 1024.92L763.436 903.692C766.266 895.361 761.807 886.313 753.476 883.483L491.246 794.406C482.914 791.576 473.867 796.035 471.036 804.366L429.858 925.59C427.027 933.922 431.487 942.969 439.818 945.799L702.048 1034.88ZM774.788 820.742C783.12 823.572 792.167 819.113 794.997 810.781L836.176 689.558C839.006 681.227 834.547 672.179 826.216 669.348L563.986 580.271C555.654 577.441 546.606 581.901 543.776 590.232L502.598 711.455C499.768 719.787 504.227 728.834 512.558 731.665L774.788 820.742ZM847.529 606.607C855.86 609.437 864.908 604.977 867.738 596.646L908.916 475.422C911.746 467.091 907.287 458.043 898.956 455.213L636.726 366.135C628.394 363.305 619.346 367.765 616.517 376.096L575.338 497.32C572.508 505.651 576.967 514.699 585.299 517.529L847.529 606.607ZM847.809 1026.43C856.141 1029.26 865.188 1024.8 868.018 1016.47L879.13 983.756C881.96 975.425 877.501 966.377 869.17 963.547L836.458 952.435C828.127 949.605 819.079 954.065 816.249 962.396L805.137 995.107C802.307 1003.44 806.766 1012.49 815.098 1015.32L847.809 1026.43ZM893.855 890.878C902.186 893.709 911.234 889.248 914.064 880.918L925.176 848.205C928.006 839.875 923.547 830.826 915.215 827.996L882.504 816.884C874.172 814.054 865.124 818.514 862.294 826.845L851.182 859.557C848.353 867.888 852.812 876.936 861.143 879.767L893.855 890.878ZM939.9 755.328C948.232 758.158 957.279 753.699 960.109 745.367L971.221 712.655C974.051 704.324 969.592 695.276 961.261 692.446L928.549 681.334C920.218 678.504 911.17 682.964 908.34 691.295L897.228 724.007C894.398 732.339 898.857 741.386 907.189 744.216L939.9 755.328ZM985.945 619.778C994.277 622.608 1003.32 618.148 1006.15 609.817L1017.27 577.105C1020.1 568.775 1015.64 559.726 1007.31 556.896L974.594 545.784C966.263 542.954 957.215 547.414 954.385 555.745L943.273 588.457C940.443 596.788 944.902 605.836 953.234 608.666L985.945 619.778Z" fill="#24243D"/>
</svg>
